{
	"asset":{
		"generator":"Khronos glTF Blender I/O v4.4.56",
		"version":"2.0"
	},
	"extensionsUsed":[
		"KHR_lights_punctual",
		"KHR_materials_transmission",
		"KHR_materials_specular"
	],
	"extensionsRequired":[
		"KHR_lights_punctual"
	],
	"extensions":{
		"KHR_lights_punctual":{
			"lights":[
				{
					"color":[
						1,
						1,
						1
					],
					"intensity":683,
					"type":"directional",
					"name":"Sun"
				},
				{
					"color":[
						1,
						1,
						1
					],
					"intensity":683,
					"type":"directional",
					"name":"Sun.001"
				},
				{
					"color":[
						1,
						1,
						1
					],
					"intensity":683,
					"type":"directional",
					"name":"Sun.002"
				}
			]
		}
	},
	"scene":0,
	"scenes":[
		{
			"name":"Scene",
			"nodes":[
				0,
				1,
				4,
				5,
				6,
				7,
				8,
				9,
				10,
				11,
				12,
				13,
				14,
				15,
				16,
				17,
				18
			]
		}
	],
	"nodes":[
		{
			"extensions":{
				"KHR_lights_punctual":{
					"light":0
				}
			},
			"name":"Sun",
			"rotation":[
				-0.768041729927063,
				-0.28659629821777344,
				0.46257108449935913,
				0.33764249086380005
			],
			"translation":[
				-17.43560028076172,
				7.191779613494873,
				-21.70252799987793
			]
		},
		{
			"mesh":0,
			"name":"Water",
			"scale":[
				1.3799999952316284,
				1,
				1.868056297302246
			],
			"translation":[
				-60.67117691040039,
				-0.898713231086731,
				-51.63396453857422
			]
		},
		{
			"mesh":1,
			"name":"Cube.001",
			"scale":[
				8.606640815734863,
				8.606639862060547,
				8.606640815734863
			],
			"translation":[
				-0.02551192045211792,
				0.049714088439941406,
				1.9285657405853271
			]
		},
		{
			"mesh":2,
			"name":"waterwheel.002",
			"rotation":[
				0,
				0.9998739957809448,
				0,
				0.015874752774834633
			],
			"scale":[
				1.4112192392349243,
				1.4112190008163452,
				1.4112192392349243
			],
			"translation":[
				0,
				-0.5890064239501953,
				0
			]
		},
		{
			"children":[
				2,
				3
			],
			"mesh":3,
			"name":"waterdrop.002",
			"rotation":[
				0,
				-0.9654282927513123,
				0,
				0.2606687843799591
			],
			"scale":[
				0.577629804611206,
				0.577629804611206,
				0.577629804611206
			],
			"translation":[
				0,
				2.6507325172424316,
				-10
			]
		},
		{
			"extensions":{
				"KHR_lights_punctual":{
					"light":1
				}
			},
			"name":"Sun.001",
			"rotation":[
				-0.2130068838596344,
				-0.17284630239009857,
				0.7658935189247131,
				0.5815149545669556
			],
			"translation":[
				-16.144948959350586,
				6.941318035125732,
				11.866270065307617
			]
		},
		{
			"extensions":{
				"KHR_lights_punctual":{
					"light":2
				}
			},
			"name":"Sun.002",
			"rotation":[
				0.23515474796295166,
				0.3030994236469269,
				0.725774347782135,
				0.5710381865501404
			],
			"translation":[
				15.22391128540039,
				6.667795658111572,
				-5.839572906494141
			]
		},
		{
			"name":"Area",
			"rotation":[
				-0.0761406421661377,
				-0.08818179368972778,
				0.03710399568080902,
				0.9924968481063843
			],
			"translation":[
				-0.5389791131019592,
				2.940073251724243,
				-6.090073108673096
			]
		},
		{
			"mesh":4,
			"name":"Landscape",
			"scale":[
				8.45324993133545,
				8.45324993133545,
				8.45324993133545
			],
			"translation":[
				12.286046981811523,
				0,
				-13.425761222839355
			]
		},
		{
			"mesh":5,
			"name":"Landscape.001",
			"scale":[
				5.450010299682617,
				5.450010299682617,
				5.450010299682617
			],
			"translation":[
				-7.164119720458984,
				0,
				-7.502720355987549
			]
		},
		{
			"mesh":6,
			"name":"Landscape.002",
			"scale":[
				24.711668014526367,
				24.711668014526367,
				24.711668014526367
			],
			"translation":[
				23.128074645996094,
				0,
				-54.700897216796875
			]
		},
		{
			"mesh":7,
			"name":"Landscape.003",
			"scale":[
				11.137999534606934,
				11.137999534606934,
				11.137999534606934
			],
			"translation":[
				-9.330095291137695,
				0,
				-34.84358215332031
			]
		},
		{
			"mesh":8,
			"name":"Landscape.006",
			"rotation":[
				0,
				0.6810043454170227,
				0,
				0.732279360294342
			],
			"scale":[
				19.0108642578125,
				19.010866165161133,
				19.0108642578125
			],
			"translation":[
				26.816844940185547,
				0,
				-28.984554290771484
			]
		},
		{
			"mesh":9,
			"name":"Landscape.010",
			"scale":[
				11.137999534606934,
				11.137999534606934,
				11.137999534606934
			],
			"translation":[
				-12.25515365600586,
				0,
				-18.964540481567383
			]
		},
		{
			"mesh":10,
			"name":"Landscape.014",
			"scale":[
				33.78656005859375,
				33.78656005859375,
				33.78656005859375
			],
			"translation":[
				-47.66392135620117,
				-0.1347641944885254,
				-51.65385055541992
			]
		},
		{
			"mesh":11,
			"name":"Landscape.004",
			"rotation":[
				0,
				0.9516742825508118,
				0,
				0.307109534740448
			],
			"scale":[
				4.17373514175415,
				4.17373514175415,
				4.17373514175415
			],
			"translation":[
				-1.3039894104003906,
				-1.5747593641281128,
				-24.831886291503906
			]
		},
		{
			"mesh":12,
			"name":"Landscape.005",
			"rotation":[
				0.03495065122842789,
				-0.9934050440788269,
				-0.04285094887018204,
				0.10044237971305847
			],
			"scale":[
				4.393620014190674,
				4.393620014190674,
				4.393620491027832
			],
			"translation":[
				8.474438667297363,
				-1.8151652812957764,
				-23.81159210205078
			]
		},
		{
			"mesh":13,
			"name":"Landscape.016",
			"scale":[
				4.393620014190674,
				4.393620014190674,
				4.393620014190674
			],
			"translation":[
				4.952730655670166,
				-1.9855393171310425,
				-13.878911972045898
			]
		},
		{
			"mesh":14,
			"name":"Landscape.018",
			"scale":[
				4.17373514175415,
				4.17373514175415,
				4.17373514175415
			],
			"translation":[
				6.238329887390137,
				-1.4976935386657715,
				-34.280731201171875
			]
		}
	],
	"materials":[
		{
			"doubleSided":true,
			"emissiveFactor":[
				0.009999999776482582,
				0.009999999776482582,
				0.009999999776482582
			],
			"extensions":{
				"KHR_materials_transmission":{
					"transmissionFactor":1
				}
			},
			"name":"Water 02",
			"pbrMetallicRoughness":{
				"metallicFactor":0
			}
		},
		{
			"doubleSided":true,
			"emissiveFactor":[
				1,
				1,
				1
			],
			"extensions":{
				"KHR_materials_transmission":{
					"transmissionFactor":1
				}
			},
			"name":"logo inside",
			"pbrMetallicRoughness":{
				"metallicFactor":0,
				"roughnessFactor":0.06727272272109985
			}
		},
		{
			"doubleSided":true,
			"name":"water_wheel_txt.003",
			"normalTexture":{
				"index":0
			},
			"pbrMetallicRoughness":{
				"baseColorTexture":{
					"index":1
				},
				"metallicRoughnessTexture":{
					"index":2
				}
			}
		},
		{
			"doubleSided":true,
			"emissiveFactor":[
				1,
				1,
				1
			],
			"extensions":{
				"KHR_materials_transmission":{
					"transmissionFactor":1
				}
			},
			"name":"logo outside",
			"pbrMetallicRoughness":{
				"metallicFactor":0,
				"roughnessFactor":0.06727272272109985
			}
		},
		{
			"doubleSided":true,
			"name":"ice",
			"pbrMetallicRoughness":{
				"baseColorFactor":[
					0.39313697814941406,
					0.7230079174041748,
					0.8001892566680908,
					1
				],
				"metallicFactor":0,
				"roughnessFactor":0.3499999940395355
			}
		}
	],
	"meshes":[
		{
			"name":"Plane.001",
			"primitives":[
				{
					"attributes":{
						"POSITION":0,
						"NORMAL":1,
						"TEXCOORD_0":2,
						"TEXCOORD_1":3
					},
					"indices":4,
					"material":0
				}
			]
		},
		{
			"name":"Cube.004",
			"primitives":[
				{
					"attributes":{
						"POSITION":5,
						"NORMAL":6,
						"TEXCOORD_0":7
					},
					"indices":8,
					"material":1
				}
			]
		},
		{
			"name":"mechanism_low_water_wheel_txt_0.003",
			"primitives":[
				{
					"attributes":{
						"POSITION":9,
						"NORMAL":10,
						"TEXCOORD_0":11
					},
					"indices":12,
					"material":2
				}
			]
		},
		{
			"name":"drop.003",
			"primitives":[
				{
					"attributes":{
						"POSITION":13,
						"NORMAL":14,
						"TEXCOORD_0":15
					},
					"indices":16,
					"material":3
				}
			]
		},
		{
			"name":"Landscape",
			"primitives":[
				{
					"attributes":{
						"POSITION":17,
						"NORMAL":18
					},
					"indices":19,
					"material":4
				}
			]
		},
		{
			"name":"Landscape.011",
			"primitives":[
				{
					"attributes":{
						"POSITION":20,
						"NORMAL":21
					},
					"indices":22,
					"material":4
				}
			]
		},
		{
			"name":"Landscape.012",
			"primitives":[
				{
					"attributes":{
						"POSITION":23,
						"NORMAL":24
					},
					"indices":19,
					"material":4
				}
			]
		},
		{
			"name":"Landscape.013",
			"primitives":[
				{
					"attributes":{
						"POSITION":25,
						"NORMAL":26
					},
					"indices":22,
					"material":4
				}
			]
		},
		{
			"name":"Landscape.006",
			"primitives":[
				{
					"attributes":{
						"POSITION":27,
						"NORMAL":28
					},
					"indices":29,
					"material":4
				}
			]
		},
		{
			"name":"Landscape.010",
			"primitives":[
				{
					"attributes":{
						"POSITION":30,
						"NORMAL":31
					},
					"indices":22,
					"material":4
				}
			]
		},
		{
			"name":"Landscape.014",
			"primitives":[
				{
					"attributes":{
						"POSITION":32,
						"NORMAL":33
					},
					"indices":34,
					"material":4
				}
			]
		},
		{
			"name":"Landscape.019",
			"primitives":[
				{
					"attributes":{
						"POSITION":35,
						"NORMAL":36
					},
					"indices":37,
					"material":4
				}
			]
		},
		{
			"name":"Landscape.020",
			"primitives":[
				{
					"attributes":{
						"POSITION":38,
						"NORMAL":39
					},
					"indices":40,
					"material":4
				}
			]
		},
		{
			"name":"Landscape.016",
			"primitives":[
				{
					"attributes":{
						"POSITION":41,
						"NORMAL":42,
						"TEXCOORD_0":43
					},
					"indices":44,
					"material":4
				}
			]
		},
		{
			"name":"Landscape.018",
			"primitives":[
				{
					"attributes":{
						"POSITION":45,
						"NORMAL":46
					},
					"indices":47,
					"material":4
				}
			]
		}
	],
	"textures":[
		{
			"sampler":0,
			"source":0
		},
		{
			"sampler":0,
			"source":1
		},
		{
			"sampler":0,
			"source":2
		}
	],
	"images":[
		{
			"mimeType":"image/png",
			"name":"Image_2",
			"uri":"Image_2.png"
		},
		{
			"mimeType":"image/png",
			"name":"Image_0",
			"uri":"Image_0.png"
		},
		{
			"mimeType":"image/png",
			"name":"Image_1",
			"uri":"Image_1.png"
		}
	],
	"accessors":[
		{
			"bufferView":0,
			"componentType":5126,
			"count":4,
			"max":[
				92.89181518554688,
				-0.16043859720230103,
				31.50101661682129
			],
			"min":[
				-5.545642852783203,
				-0.16043859720230103,
				-30.916528701782227
			],
			"type":"VEC3"
		},
		{
			"bufferView":1,
			"componentType":5126,
			"count":4,
			"type":"VEC3"
		},
		{
			"bufferView":2,
			"componentType":5126,
			"count":4,
			"type":"VEC2"
		},
		{
			"bufferView":3,
			"componentType":5126,
			"count":4,
			"type":"VEC2"
		},
		{
			"bufferView":4,
			"componentType":5123,
			"count":6,
			"type":"SCALAR"
		},
		{
			"bufferView":5,
			"componentType":5126,
			"count":157257,
			"max":[
				0.1807192713022232,
				0.3070668876171112,
				-0.039837952703237534
			],
			"min":[
				-0.16585847735404968,
				-0.5464054346084595,
				-0.47375714778900146
			],
			"type":"VEC3"
		},
		{
			"bufferView":6,
			"componentType":5126,
			"count":157257,
			"type":"VEC3"
		},
		{
			"bufferView":7,
			"componentType":5126,
			"count":157257,
			"type":"VEC2"
		},
		{
			"bufferView":8,
			"componentType":5125,
			"count":869184,
			"type":"SCALAR"
		},
		{
			"bufferView":9,
			"componentType":5126,
			"count":1881,
			"max":[
				0.9614649415016174,
				0.9613013863563538,
				0.6673463582992554
			],
			"min":[
				-0.9565318822860718,
				-0.956695020198822,
				-0.3124713599681854
			],
			"type":"VEC3"
		},
		{
			"bufferView":10,
			"componentType":5126,
			"count":1881,
			"type":"VEC3"
		},
		{
			"bufferView":11,
			"componentType":5126,
			"count":1881,
			"type":"VEC2"
		},
		{
			"bufferView":12,
			"componentType":5123,
			"count":3624,
			"type":"SCALAR"
		},
		{
			"bufferView":13,
			"componentType":5126,
			"count":5951,
			"max":[
				1.9644111394882202,
				5.173286437988281,
				1.8970425128936768
			],
			"min":[
				-1.9644111394882202,
				-2.7362966537475586,
				-1.441527247428894
			],
			"type":"VEC3"
		},
		{
			"bufferView":14,
			"componentType":5126,
			"count":5951,
			"type":"VEC3"
		},
		{
			"bufferView":15,
			"componentType":5126,
			"count":5951,
			"type":"VEC2"
		},
		{
			"bufferView":16,
			"componentType":5123,
			"count":32532,
			"type":"SCALAR"
		},
		{
			"bufferView":17,
			"componentType":5126,
			"count":8877,
			"max":[
				0.7952755689620972,
				0.25,
				0.8582677245140076
			],
			"min":[
				-0.7795275449752808,
				0.009523001499474049,
				-0.7795275449752808
			],
			"type":"VEC3"
		},
		{
			"bufferView":18,
			"componentType":5126,
			"count":8877,
			"type":"VEC3"
		},
		{
			"bufferView":19,
			"componentType":5123,
			"count":51960,
			"type":"SCALAR"
		},
		{
			"bufferView":20,
			"componentType":5126,
			"count":8169,
			"max":[
				0.8267716765403748,
				0.25,
				0.8110235929489136
			],
			"min":[
				-0.8110235929489136,
				0.01640484295785427,
				-0.7795275449752808
			],
			"type":"VEC3"
		},
		{
			"bufferView":21,
			"componentType":5126,
			"count":8169,
			"type":"VEC3"
		},
		{
			"bufferView":22,
			"componentType":5123,
			"count":47604,
			"type":"SCALAR"
		},
		{
			"bufferView":23,
			"componentType":5126,
			"count":8877,
			"max":[
				0.7952755689620972,
				0.25,
				0.8582677245140076
			],
			"min":[
				-0.7795275449752808,
				0.009523001499474049,
				-0.7795275449752808
			],
			"type":"VEC3"
		},
		{
			"bufferView":24,
			"componentType":5126,
			"count":8877,
			"type":"VEC3"
		},
		{
			"bufferView":25,
			"componentType":5126,
			"count":8169,
			"max":[
				0.8267716765403748,
				0.25,
				0.8110235929489136
			],
			"min":[
				-0.8110235929489136,
				0.01640484295785427,
				-0.7795275449752808
			],
			"type":"VEC3"
		},
		{
			"bufferView":26,
			"componentType":5126,
			"count":8169,
			"type":"VEC3"
		},
		{
			"bufferView":27,
			"componentType":5126,
			"count":10435,
			"max":[
				0.9055117964744568,
				0.25,
				0.8897637724876404
			],
			"min":[
				-0.8267716765403748,
				0.0015953955007717013,
				-0.8897637724876404
			],
			"type":"VEC3"
		},
		{
			"bufferView":28,
			"componentType":5126,
			"count":10435,
			"type":"VEC3"
		},
		{
			"bufferView":29,
			"componentType":5123,
			"count":61236,
			"type":"SCALAR"
		},
		{
			"bufferView":30,
			"componentType":5126,
			"count":8169,
			"max":[
				0.8267716765403748,
				0.25,
				0.8110235929489136
			],
			"min":[
				-0.8110235929489136,
				0.01640484295785427,
				-0.7795275449752808
			],
			"type":"VEC3"
		},
		{
			"bufferView":31,
			"componentType":5126,
			"count":8169,
			"type":"VEC3"
		},
		{
			"bufferView":32,
			"componentType":5126,
			"count":9168,
			"max":[
				0.8582677245140076,
				0.25,
				0.8110235929489136
			],
			"min":[
				-0.8267716765403748,
				0.00849862303584814,
				-0.8267716765403748
			],
			"type":"VEC3"
		},
		{
			"bufferView":33,
			"componentType":5126,
			"count":9168,
			"type":"VEC3"
		},
		{
			"bufferView":34,
			"componentType":5123,
			"count":53688,
			"type":"SCALAR"
		},
		{
			"bufferView":35,
			"componentType":5126,
			"count":5343,
			"max":[
				0.7007874250411987,
				0.25,
				0.7007874250411987
			],
			"min":[
				-0.6850393414497375,
				0.09837262332439423,
				-0.6377952694892883
			],
			"type":"VEC3"
		},
		{
			"bufferView":36,
			"componentType":5126,
			"count":5343,
			"type":"VEC3"
		},
		{
			"bufferView":37,
			"componentType":5123,
			"count":30750,
			"type":"SCALAR"
		},
		{
			"bufferView":38,
			"componentType":5126,
			"count":11850,
			"max":[
				1,
				0.25,
				0.9842519760131836
			],
			"min":[
				-0.9842519760131836,
				0,
				-1
			],
			"type":"VEC3"
		},
		{
			"bufferView":39,
			"componentType":5126,
			"count":11850,
			"type":"VEC3"
		},
		{
			"bufferView":40,
			"componentType":5123,
			"count":53952,
			"type":"SCALAR"
		},
		{
			"bufferView":41,
			"componentType":5126,
			"count":4297,
			"max":[
				0.6377952694892883,
				0.25,
				0.7637795209884644
			],
			"min":[
				-0.5748031735420227,
				0.1724657565355301,
				-0.4488188922405243
			],
			"type":"VEC3"
		},
		{
			"bufferView":42,
			"componentType":5126,
			"count":4297,
			"type":"VEC3"
		},
		{
			"bufferView":43,
			"componentType":5126,
			"count":4297,
			"type":"VEC2"
		},
		{
			"bufferView":44,
			"componentType":5123,
			"count":21456,
			"type":"SCALAR"
		},
		{
			"bufferView":45,
			"componentType":5126,
			"count":5638,
			"max":[
				0.7165354490280151,
				0.25,
				0.7165354490280151
			],
			"min":[
				-0.7007874250411987,
				0.08639086782932281,
				-0.6377952694892883
			],
			"type":"VEC3"
		},
		{
			"bufferView":46,
			"componentType":5126,
			"count":5638,
			"type":"VEC3"
		},
		{
			"bufferView":47,
			"componentType":5123,
			"count":32544,
			"type":"SCALAR"
		}
	],
	"bufferViews":[
		{
			"buffer":0,
			"byteLength":48,
			"byteOffset":0,
			"target":34962
		},
		{
			"buffer":0,
			"byteLength":48,
			"byteOffset":48,
			"target":34962
		},
		{
			"buffer":0,
			"byteLength":32,
			"byteOffset":96,
			"target":34962
		},
		{
			"buffer":0,
			"byteLength":32,
			"byteOffset":128,
			"target":34962
		},
		{
			"buffer":0,
			"byteLength":12,
			"byteOffset":160,
			"target":34963
		},
		{
			"buffer":0,
			"byteLength":1887084,
			"byteOffset":172,
			"target":34962
		},
		{
			"buffer":0,
			"byteLength":1887084,
			"byteOffset":1887256,
			"target":34962
		},
		{
			"buffer":0,
			"byteLength":1258056,
			"byteOffset":3774340,
			"target":34962
		},
		{
			"buffer":0,
			"byteLength":3476736,
			"byteOffset":5032396,
			"target":34963
		},
		{
			"buffer":0,
			"byteLength":22572,
			"byteOffset":8509132,
			"target":34962
		},
		{
			"buffer":0,
			"byteLength":22572,
			"byteOffset":8531704,
			"target":34962
		},
		{
			"buffer":0,
			"byteLength":15048,
			"byteOffset":8554276,
			"target":34962
		},
		{
			"buffer":0,
			"byteLength":7248,
			"byteOffset":8569324,
			"target":34963
		},
		{
			"buffer":0,
			"byteLength":71412,
			"byteOffset":8576572,
			"target":34962
		},
		{
			"buffer":0,
			"byteLength":71412,
			"byteOffset":8647984,
			"target":34962
		},
		{
			"buffer":0,
			"byteLength":47608,
			"byteOffset":8719396,
			"target":34962
		},
		{
			"buffer":0,
			"byteLength":65064,
			"byteOffset":8767004,
			"target":34963
		},
		{
			"buffer":0,
			"byteLength":106524,
			"byteOffset":8832068,
			"target":34962
		},
		{
			"buffer":0,
			"byteLength":106524,
			"byteOffset":8938592,
			"target":34962
		},
		{
			"buffer":0,
			"byteLength":103920,
			"byteOffset":9045116,
			"target":34963
		},
		{
			"buffer":0,
			"byteLength":98028,
			"byteOffset":9149036,
			"target":34962
		},
		{
			"buffer":0,
			"byteLength":98028,
			"byteOffset":9247064,
			"target":34962
		},
		{
			"buffer":0,
			"byteLength":95208,
			"byteOffset":9345092,
			"target":34963
		},
		{
			"buffer":0,
			"byteLength":106524,
			"byteOffset":9440300,
			"target":34962
		},
		{
			"buffer":0,
			"byteLength":106524,
			"byteOffset":9546824,
			"target":34962
		},
		{
			"buffer":0,
			"byteLength":98028,
			"byteOffset":9653348,
			"target":34962
		},
		{
			"buffer":0,
			"byteLength":98028,
			"byteOffset":9751376,
			"target":34962
		},
		{
			"buffer":0,
			"byteLength":125220,
			"byteOffset":9849404,
			"target":34962
		},
		{
			"buffer":0,
			"byteLength":125220,
			"byteOffset":9974624,
			"target":34962
		},
		{
			"buffer":0,
			"byteLength":122472,
			"byteOffset":10099844,
			"target":34963
		},
		{
			"buffer":0,
			"byteLength":98028,
			"byteOffset":10222316,
			"target":34962
		},
		{
			"buffer":0,
			"byteLength":98028,
			"byteOffset":10320344,
			"target":34962
		},
		{
			"buffer":0,
			"byteLength":110016,
			"byteOffset":10418372,
			"target":34962
		},
		{
			"buffer":0,
			"byteLength":110016,
			"byteOffset":10528388,
			"target":34962
		},
		{
			"buffer":0,
			"byteLength":107376,
			"byteOffset":10638404,
			"target":34963
		},
		{
			"buffer":0,
			"byteLength":64116,
			"byteOffset":10745780,
			"target":34962
		},
		{
			"buffer":0,
			"byteLength":64116,
			"byteOffset":10809896,
			"target":34962
		},
		{
			"buffer":0,
			"byteLength":61500,
			"byteOffset":10874012,
			"target":34963
		},
		{
			"buffer":0,
			"byteLength":142200,
			"byteOffset":10935512,
			"target":34962
		},
		{
			"buffer":0,
			"byteLength":142200,
			"byteOffset":11077712,
			"target":34962
		},
		{
			"buffer":0,
			"byteLength":107904,
			"byteOffset":11219912,
			"target":34963
		},
		{
			"buffer":0,
			"byteLength":51564,
			"byteOffset":11327816,
			"target":34962
		},
		{
			"buffer":0,
			"byteLength":51564,
			"byteOffset":11379380,
			"target":34962
		},
		{
			"buffer":0,
			"byteLength":34376,
			"byteOffset":11430944,
			"target":34962
		},
		{
			"buffer":0,
			"byteLength":42912,
			"byteOffset":11465320,
			"target":34963
		},
		{
			"buffer":0,
			"byteLength":67656,
			"byteOffset":11508232,
			"target":34962
		},
		{
			"buffer":0,
			"byteLength":67656,
			"byteOffset":11575888,
			"target":34962
		},
		{
			"buffer":0,
			"byteLength":65088,
			"byteOffset":11643544,
			"target":34963
		}
	],
	"samplers":[
		{
			"magFilter":9729,
			"minFilter":9987
		}
	],
	"buffers":[
		{
			"byteLength":11708632,
			"uri":"THEME_REVEAL_GRID.bin"
		}
	]
}
